HIERARCHY
ROOT ui
{
	 OFFSET 0 0 0
	 CHANNELS 3 XPosition YPosition Z Position
	 EndSite
	 {
	 OFFSET 0 -1 0
	 }
}
ROOT li
{
	 OFFSET 0 0 0
	 CHANNELS 3 XPosition YPosition Z Position
	 EndSite
	 {
	 OFFSET 0 -1 0
	 }
}
ROOT ul
{
	 OFFSET 0 0 0
	 CHANNELS 3 XPosition YPosition Z Position
	 EndSite
	 {
	 OFFSET 0 -1 0
	 }
}
ROOT ll
{
	 OFFSET 0 0 0
	 CHANNELS 3 XPosition YPosition Z Position
	 EndSite
	 {
	 OFFSET 0 -1 0
	 }
}
ROOT tt
{
	 OFFSET 0 0 0
	 CHANNELS 3 XPosition YPosition Z Position
	 EndSite
	 {
	 OFFSET 0 -1 0
	 }
}
ROOT tb
{
	 OFFSET 0 0 0
	 CHANNELS 3 XPosition YPosition Z Position
	 EndSite
	 {
	 OFFSET 0 -1 0
	 }
}
ROOT td
{
	 OFFSET 0 0 0
	 CHANNELS 3 XPosition YPosition Z Position
	 EndSite
	 {
	 OFFSET 0 -1 0
	 }
}
ROOT v
{
	 OFFSET 0 0 0
	 CHANNELS 3 XPosition YPosition Z Position
	 EndSite
	 {
	 OFFSET 0 -1 0
	 }
}
ROOT bn
{
	 OFFSET 0 0 0
	 CHANNELS 3 XPosition YPosition Z Position
	 EndSite
	 {
	 OFFSET 0 -1 0
	 }
}
MOTION
Frames: 27
Frame Time: 0.002
0.0011977850198745727	4.5799800753593443E-4	0		0.43043731689453124	-2.318849365234375	0		-1.06849169921875	-0.03310460662841797	0		-0.9468414306640625	-2.263384765625	0		1.4135416259765625	-0.29661050415039064	0		2.97632861328125	-0.26108786010742185	0		4.15673193359375	-0.12331666564941406	0		5.57929345703125	0.08351520538330078	0		-0.04629214859008789	5.98102734375	0		
-0.005610854148864746	-0.006364723205566406	0		0.4467599182128906	-2.315057373046875	0		-1.074105224609375	-0.027924383163452148	0		-0.9964599609375	-2.25548876953125	0		1.410775634765625	-0.3005264892578125	0		2.97253076171875	-0.26701773071289064	0		4.15216552734375	-0.11525510406494141	0		5.57061767578125	0.08461524963378907	0		-0.045870773315429686	5.98109033203125	0		
-0.015154621124267579	0.002862528085708618	0		0.4200623779296875	-2.3125595703125	0		-1.0678802490234376	-0.0329374771118164	0		-0.92126806640625	-2.260631103515625	0		1.4141431884765625	-0.2965365905761719	0		2.972833984375	-0.26700643920898437	0		4.15247119140625	-0.11526508331298828	0		5.570943359375	0.08557955169677735	0		-0.0454549560546875	5.98115625	0		
-0.004999086856842041	-0.006232754230499267	0		0.42919573974609376	-2.320645751953125	0		-1.0675767822265625	-0.032852783203125	0		-0.9860421752929688	-2.262485107421875	0		1.4144422607421876	-0.29649334716796877	0		3.00093359375	-0.27944570922851564	0		4.16073974609375	-0.11739818572998047	0		5.571232421875	0.08455349731445312	0		-0.06295043563842774	5.987517578125	0		
-0.0016388779878616334	-0.002213884115219116	0		0.43148757934570314	-2.318616943359375	0		-1.0672821044921874	-0.03276783752441406	0		-0.9457872924804688	-2.263056396484375	0		1.41473291015625	-0.2964467468261719	0		2.991422119140625	-0.267261474609375	0		4.157935546875	-0.12334407806396484	0		5.59051025390625	0.08322489166259765	0		-0.0625627326965332	5.9875869140625	0		
-0.007158352851867676	0.009953062057495117	0		0.42287014770507814	-2.310406494140625	0		-1.06699951171875	-0.03268252182006836	0		-0.9913333740234375	-2.250220458984375	0		1.4150118408203125	-0.2963965759277344	0		3.0096826171875	-0.26852850341796874	0		4.161314453125	-0.11738274383544922	0		5.5859423828125	0.09229664611816406	0		-0.04429560089111328	5.98136376953125	0		
0.00296159291267395	8.623510003089905E-4	0		0.45894064331054685	-2.320928955078125	0		-1.0726483154296875	-0.027499181747436523	0		-0.9202504272460937	-2.26029931640625	0		1.4122115478515624	-0.3002928466796875	0		3.009947998046875	-0.2684948425292969	0		4.15848388671875	-0.12331372833251954	0		5.58621240234375	0.0922975082397461	0		-0.027755956649780273	5.99317236328125	0		
-0.003899293899536133	-0.005948623180389404	0		0.4213041687011719	-2.31223828125	0		-1.0723955078125	-0.02741397476196289	0		-1.0068632202148438	-2.2497890625	0		1.4204273681640625	-0.30236642456054685	0		2.974219482421875	-0.266864501953125	0		4.1587353515625	-0.1232869644165039	0		5.59131787109375	0.0832274627685547	0		-0.010520301818847656	5.98796728515625	0		
-0.013513657569885254	0.003287923097610474	0		0.43038592529296876	-2.320315673828125	0		-1.0662421875	-0.032428050994873045	0		-0.9967645874023437	-2.256869140625	0		1.417595703125	-0.30625677490234376	0		2.974453369140625	-0.2668195495605469	0		4.158970703125	-0.12325338745117187	0		5.57257421875	0.08455918884277344	0		-0.060252391815185546	5.9868623046875	0		
0.008605060577392578	-0.002999629020690918	0		0.40670553588867187	-2.3128525390625	0		-1.13794677734375	-0.027163856506347655	0		-0.980581298828125	-2.25805078125	0		1.4190433349609375	-0.292213623046875	0		3.034663330078125	-0.26775665283203126	0		4.15517431640625	-0.1241484146118164	0		5.58690869140625	0.09135579681396484	0		-0.025922210693359374	5.990376953125	0		
0.011858866691589356	2.2602999582886696E-5	0		0.46385394287109377	-2.31572021484375	0		-1.0617523193359375	-0.028333290100097656	0		-0.9902590942382813	-2.24980859375	0		1.4143291015625	-0.28706988525390625	0		2.97897265625	-0.26078582763671876	0		4.15762451171875	-0.10913992309570313	0		5.5730009765625	0.08462040710449219	0		-0.06072061920166016	5.98802490234375	0		
-0.012898309707641602	0.003503829002380371	0		0.4241182861328125	-2.3099951171875	0		-1.0656275634765624	-0.03219021987915039	0		-0.9660852661132813	-2.250126953125	0		1.413303955078125	-0.2999892578125	0		2.9791611328125	-0.26073245239257814	0		4.1547158203125	-0.1150432357788086	0		5.5732080078125	0.08565862274169922	0		-0.04259694671630859	5.98180029296875	0		
0.0020610110759735106	-0.009672209739685059	0		0.45806390380859374	-2.32348583984375	0		-1.0713695068359375	-0.027018220901489257	0		-1.0059154663085939	-2.2493955078125	0		1.41126416015625	-0.3128925170898437	0		2.979335205078125	-0.2606778869628906	0		4.15975830078125	-0.12307548522949219	0		5.568515625	0.09378189086914063	0		-0.04236016082763672	5.983869140625	0		
-0.012562644004821778	0.003639863967895508	0		0.4312683410644531	-2.319976806640625	0		-1.065292236328125	-0.032045032501220705	0		-0.958918212890625	-2.2590966796875	0		1.413636962890625	-0.2998656311035156	0		3.019554931640625	-0.25728106689453123	0		4.1630166015625	-0.11707478332519532	0		5.57352783203125	0.08474623107910156	0		-0.026030494689941407	5.992671875	0		
-0.008349967002868653	0.007639051914215088	0		0.4334412841796875	-2.31794580078125	0		-1.1370693359375	-0.026792016983032227	0		-0.981791015625	-2.2596494140625	0		1.413783447265625	-0.299804443359375	0		2.99583642578125	-0.2488309326171875	0		4.1503955078125	-0.10280995941162109	0		5.57367529296875	0.08479472351074219	0		-0.07513792419433593	5.97654638671875	0		
0.007752528190612793	0.00543990421295166	0		0.43562271118164064	-2.314916015625	0		-1.0668590087890626	-0.02287828063964844	0		-0.9166180419921875	-2.257653564453125	0		1.4018890380859375	-0.30154598999023435	0		3.0180693359375	-0.24313670349121094	0		4.16739892578125	-0.11103414916992188	0		5.58794287109375	0.0926145248413086	0		-0.025697256088256838	5.99380126953125	0		
-0.0022950739860534666	-0.005332905769348145	0		0.4517986755371094	-2.312119384765625	0		-1.0648753662109376	-0.03184731674194336	0		-1.0033128051757811	-2.24616064453125	0		1.414052001953125	-0.29968466186523435	0		3.018200927734375	-0.24307994079589842	0		4.1626630859375	-0.10289784240722656	0		5.582927734375	0.08375108337402344	0		-0.0417518424987793	5.98212744140625	0		
9.014400243759156E-4	-0.0013263009786605834	0		0.43179937744140623	-2.31973291015625	0		-1.064744384765625	-0.0317901439666748	0		-0.9303082275390625	-2.254303955078125	0		1.4070521240234375	-0.3075126953125	0		3.0083662109375	-0.24086093139648437	0		4.16279443359375	-0.10284384918212891	0		5.584091796875	0.0857874755859375	0		-0.008506370544433593	5.98864013671875	0		
0.00290380597114563	-0.009307766914367676	0		0.43193405151367187	-2.319682373046875	0		-1.1415831298828125	-0.029472686767578124	0		-0.995214111328125	-2.25618359375	0		1.410251953125	-0.30351202392578125	0		2.976603515625	-0.23428419494628908	0		4.15989599609375	-0.10474317932128906	0		5.5742109375	0.08500344848632813	0		-0.040500335693359375	5.98121826171875	0		
0.013208369255065917	5.69894015789032E-4	0		0.43819140625	-2.31273828125	0		-1.0604034423828126	-0.027763458251953126	0		-0.9530440063476563	-2.25483203125	0		1.417524169921875	-0.295583740234375	0		3.022689453125	-0.23799522399902343	0		4.16723388671875	-0.09281351470947266	0		5.58846533203125	0.09181957244873047	0		-0.02420076560974121	5.9909970703125	0		
0.005376814842224121	0.0017386360168457032	0		0.4403769836425781	-2.31073388671875	0		-1.1362421875	-0.026476387023925782	0		-1.0007200317382812	-2.244007080078125	0		1.4176754150390625	-0.2955452880859375	0		2.987240478515625	-0.21336610412597656	0		4.1625009765625	-0.08569127655029297	0		5.56965185546875	0.09417415618896484	0		-0.04120099258422852	5.9823154296875	0		
0.010471428871154785	-0.0023114609718322752	0		0.461388671875	-2.32004638671875	0		-1.0641566162109375	-0.0316298828125	0		-0.9276824951171875	-2.252176513671875	0		1.407640625	-0.3073464965820312	0		3.007168701171875	-0.22765972900390624	0		4.17156201171875	-0.09180417633056641	0		5.583646484375	0.08398043823242188	0		-0.07413810729980469	5.976890625	0		
-0.0014063550233840943	-0.005086462020874024	0		0.425728271484375	-2.309427978515625	0		-1.140959716796875	-0.029335786819458008	0		-1.004468994140625	-2.248882568359375	0		1.4108759765625	-0.30336920166015624	0		2.975441650390625	-0.2211065673828125	0		4.1538662109375	-0.08348159790039063	0		5.57070263671875	0.0772228775024414	0		-0.04087433242797851	5.9823740234375	0		
-0.0012303539514541626	-0.005062384128570557	0		0.43273712158203126	-2.31951806640625	0		-1.0638106689453124	-0.031578027725219726	0		-0.96733251953125	-2.251466552734375	0		1.407986328125	-0.30729620361328125	0		3.01159619140625	-0.2226769561767578	0		4.1630078125	-0.08560832977294922	0		5.57501025390625	0.08517607116699219	0		-0.07378835296630859	5.97694189453125	0		
0.006062528133392334	0.00184489905834198	0		0.4090306396484375	-2.312101318359375	0		-1.1355565185546874	-0.026368410110473632	0		-0.992203369140625	-2.25402978515625	0		1.41122998046875	-0.3033248291015625	0		2.9781083984375	-0.20210121154785157	0		4.1713828125	-0.07372455596923828	0		5.57518896484375	0.08519098663330078	0		-0.02431095314025879	5.99415673828125	0		
-0.0036104280948638916	0.011034038543701172	0		0.4484281616210937	-2.29872021484375	0		-1.0593892822265625	-0.027591196060180664	0		-0.963952392578125	-2.24946337890625	0		1.4154720458984376	-0.29936865234375	0		3.024229736328125	-0.2058389892578125	0		4.1745927734375	-0.07175784301757812	0		5.5843486328125	0.0840561752319336	0		-0.0403153076171875	5.982447265625	0		
0.0064124507904052734	0.001901128053665161	0		0.4352829284667969	-2.317474365234375	0		-1.1402554931640625	-0.029223636627197267	0		-0.9668189086914063	-2.25138037109375	0		1.4085128173828125	-0.307225830078125	0		3.028499755859375	-0.19988375854492188	0		4.17476513671875	-0.07173920440673828	0		5.5896689453125	0.09298725891113281	0		-0.02491390609741211	5.9952294921875	0		
